<svg width="42" height="27" viewBox="0 0 42 27" fill="#c9d1d9" xmlns="http://www.w3.org/2000/svg">
              <path d="M0.284813 0.698363C0.967847 2.15703 3.37831 7.31766 6.20424 13.385L6.58544 14.2027L12.3612 26.5947C12.418 26.7167 12.5087 26.8197 12.6224 26.8916C12.7362 26.9634 12.8682 27.001 13.0027 27L13.592 26.9952L14.4938 26.9862L15.0891 26.9789C15.2241 26.9774 15.356 26.9377 15.4694 26.8644C15.5828 26.7911 15.6732 26.6872 15.73 26.5647L17.594 22.5603C17.721 22.2881 17.8481 22.0155 17.9752 21.7425L19.8397 17.7387C19.8992 17.6107 19.9301 17.4711 19.9301 17.3299C19.9301 17.1886 19.8992 17.0491 19.8397 16.921L19.4915 16.1694C19.3869 15.944 19.2174 15.5772 19.1115 15.3517C18.9726 15.0565 18.8464 14.795 18.7508 14.5959C18.6408 14.3729 18.4471 14.3759 18.3389 14.6001C18.0485 15.2014 17.4743 16.419 16.8075 17.847L16.4263 18.6647C15.7649 20.0849 15.1895 21.2844 14.8937 21.8766C14.7824 22.0985 14.5931 22.0907 14.4854 21.8658C13.8812 20.5893 11.9427 16.4544 9.65188 11.5391L9.27128 10.722L4.48102 0.446434C4.42387 0.324177 4.33331 0.220577 4.21979 0.147593C4.10627 0.0746092 3.97443 0.0352183 3.83948 0.0339681L2.57081 0.023145L1.66892 0.0171329L0.406268 0.00991711C0.365926 -0.00186976 0.323245 -0.0031726 0.28226 0.00613078C0.241275 0.0154342 0.20334 0.0350367 0.172041 0.0630854C0.140742 0.091134 0.117113 0.126702 0.10339 0.166426C0.089666 0.206151 0.0863005 0.248718 0.0936113 0.290106L0.284813 0.698363Z" fill="#c9d1d9"></path>
              <path d="M14.2926 0.698363C14.9757 2.15703 17.3861 7.31766 20.2121 13.385L20.5933 14.2027L26.369 26.5947C26.4258 26.7167 26.5165 26.8197 26.6302 26.8916C26.744 26.9634 26.876 27.001 27.0105 27L27.5998 26.9952L28.5017 26.9862L29.0909 26.9789C29.226 26.9774 29.3579 26.9377 29.4714 26.8644C29.585 26.7911 29.6754 26.6872 29.7324 26.5647L35.6338 13.9201C35.7397 13.694 35.9098 13.3285 36.015 13.1024C38.8584 7.00079 41.246 1.88105 41.9134 0.433807C42.018 0.208334 41.9008 0.0129236 41.6519 0.0129236C41.4889 0.0129236 41.2911 0.0129238 41.068 0.00931618H39.5769C39.4421 0.00923404 39.3101 0.0476767 39.1965 0.120114C39.0828 0.192552 38.9922 0.295966 38.9354 0.418175L34.1211 10.7521L33.7405 11.5698C31.446 16.4887 29.5082 20.605 28.8919 21.8706C28.783 22.0943 28.5997 22.0907 28.4926 21.8658C27.8884 20.5893 25.9499 16.4544 23.6591 11.5391L23.2785 10.722L18.4888 0.446434C18.4317 0.324177 18.3411 0.220577 18.2276 0.147593C18.1141 0.0746092 17.9822 0.0352183 17.8473 0.0339681L16.5786 0.023145L15.6767 0.0171329L14.4141 0.00991711C14.3737 -0.00186976 14.3311 -0.0031726 14.2901 0.00613078C14.2491 0.0154342 14.2112 0.0350367 14.1799 0.0630854C14.1486 0.091134 14.1249 0.126702 14.1112 0.166426C14.0975 0.206151 14.0941 0.248718 14.1014 0.290106L14.2926 0.698363Z" fill="#c9d1d9"></path>
            </svg>